<mxfile host="Pdv">
  <diagram id="OOa" name="Grid-Center">
    <mxGraphModel dx="0" dy="0" background="#FFFAFA" grid="0" gridSize="10" guides="1" tooltips="1" connect="1" arrows="1" fold="1" page="1" pageScale="1" pageWidth="1169" pageHeight="827" math="0" shadow="0">
      <root>
        <mxCell id="page_root_OOa" parent="OOa"/>
        <mxCell id="node_root_OOa" parent="page_root_OOa"/>
        <mxCell id="OOa-2" value="" style="whiteSpace=wrap;html=1;fillColor=#dae8fc;strokeColor=#6c8ebf;fontColor=#333333;ellipse" vertex="1" parent="node_root_OOa">
          <mxGeometry x="30" y="30" width="160" height="160" as="geometry"/>
        </mxCell>
        <mxCell id="OOa-3" value="" style="whiteSpace=wrap;html=1;fillColor=#dae8fc;strokeColor=#6c8ebf;fontColor=#333333" vertex="1" parent="node_root_OOa">
          <mxGeometry x="250" y="30" width="160" height="160" as="geometry"/>
        </mxCell>
        <mxCell id="OOa-4" value="" style="whiteSpace=wrap;html=1;fillColor=#dae8fc;strokeColor=#6c8ebf;fontColor=#333333;ellipse" vertex="1" parent="node_root_OOa">
          <mxGeometry x="470" y="30" width="160" height="160" as="geometry"/>
        </mxCell>
        <mxCell id="OOa-5" value="" style="whiteSpace=wrap;html=1;fillColor=#dae8fc;strokeColor=#6c8ebf;fontColor=#333333" vertex="1" parent="node_root_OOa">
          <mxGeometry x="30" y="250" width="160" height="160" as="geometry"/>
        </mxCell>
        <mxCell id="OOa-6" value="" style="whiteSpace=wrap;html=1;fillColor=#dae8fc;strokeColor=#6c8ebf;fontColor=#333333;ellipse" vertex="1" parent="node_root_OOa">
          <mxGeometry x="250" y="250" width="160" height="160" as="geometry"/>
        </mxCell>
        <mxCell id="OOa-7" value="" style="whiteSpace=wrap;html=1;fillColor=#dae8fc;strokeColor=#6c8ebf;fontColor=#333333" vertex="1" parent="node_root_OOa">
          <mxGeometry x="470" y="250" width="160" height="160" as="geometry"/>
        </mxCell>
        <mxCell id="OOa-8" value="" style="whiteSpace=wrap;html=1;fillColor=#dae8fc;strokeColor=#6c8ebf;fontColor=#333333;ellipse" vertex="1" parent="node_root_OOa">
          <mxGeometry x="30" y="470" width="160" height="160" as="geometry"/>
        </mxCell>
      </root>
    </mxGraphModel>
  </diagram>
  <diagram id="PpV" name="Grid-Top">
    <mxGraphModel dx="0" dy="0" background="#FFFAFA" grid="0" gridSize="10" guides="1" tooltips="1" connect="1" arrows="1" fold="1" page="1" pageScale="1" pageWidth="1169" pageHeight="827" math="0" shadow="0">
      <root>
        <mxCell id="page_root_PpV" parent="PpV"/>
        <mxCell id="node_root_PpV" parent="page_root_PpV"/>
        <mxCell id="PpV-2" value="" style="whiteSpace=wrap;html=1;fillColor=#dae8fc;strokeColor=#6c8ebf;fontColor=#333333;ellipse" vertex="1" parent="node_root_PpV">
          <mxGeometry x="30" y="0" width="160" height="160" as="geometry"/>
        </mxCell>
        <mxCell id="PpV-3" value="" style="whiteSpace=wrap;html=1;fillColor=#dae8fc;strokeColor=#6c8ebf;fontColor=#333333" vertex="1" parent="node_root_PpV">
          <mxGeometry x="250" y="0" width="160" height="160" as="geometry"/>
        </mxCell>
        <mxCell id="PpV-4" value="" style="whiteSpace=wrap;html=1;fillColor=#dae8fc;strokeColor=#6c8ebf;fontColor=#333333;ellipse" vertex="1" parent="node_root_PpV">
          <mxGeometry x="470" y="0" width="160" height="160" as="geometry"/>
        </mxCell>
        <mxCell id="PpV-5" value="" style="whiteSpace=wrap;html=1;fillColor=#dae8fc;strokeColor=#6c8ebf;fontColor=#333333" vertex="1" parent="node_root_PpV">
          <mxGeometry x="30" y="220" width="160" height="160" as="geometry"/>
        </mxCell>
        <mxCell id="PpV-6" value="" style="whiteSpace=wrap;html=1;fillColor=#dae8fc;strokeColor=#6c8ebf;fontColor=#333333;ellipse" vertex="1" parent="node_root_PpV">
          <mxGeometry x="250" y="220" width="160" height="160" as="geometry"/>
        </mxCell>
        <mxCell id="PpV-7" value="" style="whiteSpace=wrap;html=1;fillColor=#dae8fc;strokeColor=#6c8ebf;fontColor=#333333" vertex="1" parent="node_root_PpV">
          <mxGeometry x="470" y="220" width="160" height="160" as="geometry"/>
        </mxCell>
        <mxCell id="PpV-8" value="" style="whiteSpace=wrap;html=1;fillColor=#dae8fc;strokeColor=#6c8ebf;fontColor=#333333;ellipse" vertex="1" parent="node_root_PpV">
          <mxGeometry x="30" y="440" width="160" height="160" as="geometry"/>
        </mxCell>
      </root>
    </mxGraphModel>
  </diagram>
  <diagram id="P5X" name="Grid-Bottom">
    <mxGraphModel dx="0" dy="0" background="#FFFAFA" grid="0" gridSize="10" guides="1" tooltips="1" connect="1" arrows="1" fold="1" page="1" pageScale="1" pageWidth="1169" pageHeight="827" math="0" shadow="0">
      <root>
        <mxCell id="page_root_P5X" parent="P5X"/>
        <mxCell id="node_root_P5X" parent="page_root_P5X"/>
        <mxCell id="P5X-2" value="" style="whiteSpace=wrap;html=1;fillColor=#dae8fc;strokeColor=#6c8ebf;fontColor=#333333;ellipse" vertex="1" parent="node_root_P5X">
          <mxGeometry x="30" y="60" width="160" height="160" as="geometry"/>
        </mxCell>
        <mxCell id="P5X-3" value="" style="whiteSpace=wrap;html=1;fillColor=#dae8fc;strokeColor=#6c8ebf;fontColor=#333333" vertex="1" parent="node_root_P5X">
          <mxGeometry x="250" y="60" width="160" height="160" as="geometry"/>
        </mxCell>
        <mxCell id="P5X-4" value="" style="whiteSpace=wrap;html=1;fillColor=#dae8fc;strokeColor=#6c8ebf;fontColor=#333333;ellipse" vertex="1" parent="node_root_P5X">
          <mxGeometry x="470" y="60" width="160" height="160" as="geometry"/>
        </mxCell>
        <mxCell id="P5X-5" value="" style="whiteSpace=wrap;html=1;fillColor=#dae8fc;strokeColor=#6c8ebf;fontColor=#333333" vertex="1" parent="node_root_P5X">
          <mxGeometry x="30" y="280" width="160" height="160" as="geometry"/>
        </mxCell>
        <mxCell id="P5X-6" value="" style="whiteSpace=wrap;html=1;fillColor=#dae8fc;strokeColor=#6c8ebf;fontColor=#333333;ellipse" vertex="1" parent="node_root_P5X">
          <mxGeometry x="250" y="280" width="160" height="160" as="geometry"/>
        </mxCell>
        <mxCell id="P5X-7" value="" style="whiteSpace=wrap;html=1;fillColor=#dae8fc;strokeColor=#6c8ebf;fontColor=#333333" vertex="1" parent="node_root_P5X">
          <mxGeometry x="470" y="280" width="160" height="160" as="geometry"/>
        </mxCell>
        <mxCell id="P5X-8" value="" style="whiteSpace=wrap;html=1;fillColor=#dae8fc;strokeColor=#6c8ebf;fontColor=#333333;ellipse" vertex="1" parent="node_root_P5X">
          <mxGeometry x="30" y="500" width="160" height="160" as="geometry"/>
        </mxCell>
      </root>
    </mxGraphModel>
  </diagram>
  <diagram id="6WJ" name="Grid-Left">
    <mxGraphModel dx="0" dy="0" background="#FFFAFA" grid="0" gridSize="10" guides="1" tooltips="1" connect="1" arrows="1" fold="1" page="1" pageScale="1" pageWidth="1169" pageHeight="827" math="0" shadow="0">
      <root>
        <mxCell id="page_root_6WJ" parent="6WJ"/>
        <mxCell id="node_root_6WJ" parent="page_root_6WJ"/>
        <mxCell id="6WJ-2" value="" style="whiteSpace=wrap;html=1;fillColor=#dae8fc;strokeColor=#6c8ebf;fontColor=#333333;ellipse" vertex="1" parent="node_root_6WJ">
          <mxGeometry x="0" y="30" width="160" height="160" as="geometry"/>
        </mxCell>
        <mxCell id="6WJ-3" value="" style="whiteSpace=wrap;html=1;fillColor=#dae8fc;strokeColor=#6c8ebf;fontColor=#333333" vertex="1" parent="node_root_6WJ">
          <mxGeometry x="220" y="30" width="160" height="160" as="geometry"/>
        </mxCell>
        <mxCell id="6WJ-4" value="" style="whiteSpace=wrap;html=1;fillColor=#dae8fc;strokeColor=#6c8ebf;fontColor=#333333;ellipse" vertex="1" parent="node_root_6WJ">
          <mxGeometry x="440" y="30" width="160" height="160" as="geometry"/>
        </mxCell>
        <mxCell id="6WJ-5" value="" style="whiteSpace=wrap;html=1;fillColor=#dae8fc;strokeColor=#6c8ebf;fontColor=#333333" vertex="1" parent="node_root_6WJ">
          <mxGeometry x="0" y="250" width="160" height="160" as="geometry"/>
        </mxCell>
        <mxCell id="6WJ-6" value="" style="whiteSpace=wrap;html=1;fillColor=#dae8fc;strokeColor=#6c8ebf;fontColor=#333333;ellipse" vertex="1" parent="node_root_6WJ">
          <mxGeometry x="220" y="250" width="160" height="160" as="geometry"/>
        </mxCell>
        <mxCell id="6WJ-7" value="" style="whiteSpace=wrap;html=1;fillColor=#dae8fc;strokeColor=#6c8ebf;fontColor=#333333" vertex="1" parent="node_root_6WJ">
          <mxGeometry x="440" y="250" width="160" height="160" as="geometry"/>
        </mxCell>
        <mxCell id="6WJ-8" value="" style="whiteSpace=wrap;html=1;fillColor=#dae8fc;strokeColor=#6c8ebf;fontColor=#333333;ellipse" vertex="1" parent="node_root_6WJ">
          <mxGeometry x="0" y="470" width="160" height="160" as="geometry"/>
        </mxCell>
      </root>
    </mxGraphModel>
  </diagram>
  <diagram id="Tl3" name="Grid-Right">
    <mxGraphModel dx="0" dy="0" background="#FFFAFA" grid="0" gridSize="10" guides="1" tooltips="1" connect="1" arrows="1" fold="1" page="1" pageScale="1" pageWidth="1169" pageHeight="827" math="0" shadow="0">
      <root>
        <mxCell id="page_root_Tl3" parent="Tl3"/>
        <mxCell id="node_root_Tl3" parent="page_root_Tl3"/>
        <mxCell id="Tl3-2" value="" style="whiteSpace=wrap;html=1;fillColor=#dae8fc;strokeColor=#6c8ebf;fontColor=#333333;ellipse" vertex="1" parent="node_root_Tl3">
          <mxGeometry x="60" y="30" width="160" height="160" as="geometry"/>
        </mxCell>
        <mxCell id="Tl3-3" value="" style="whiteSpace=wrap;html=1;fillColor=#dae8fc;strokeColor=#6c8ebf;fontColor=#333333" vertex="1" parent="node_root_Tl3">
          <mxGeometry x="280" y="30" width="160" height="160" as="geometry"/>
        </mxCell>
        <mxCell id="Tl3-4" value="" style="whiteSpace=wrap;html=1;fillColor=#dae8fc;strokeColor=#6c8ebf;fontColor=#333333;ellipse" vertex="1" parent="node_root_Tl3">
          <mxGeometry x="500" y="30" width="160" height="160" as="geometry"/>
        </mxCell>
        <mxCell id="Tl3-5" value="" style="whiteSpace=wrap;html=1;fillColor=#dae8fc;strokeColor=#6c8ebf;fontColor=#333333" vertex="1" parent="node_root_Tl3">
          <mxGeometry x="60" y="250" width="160" height="160" as="geometry"/>
        </mxCell>
        <mxCell id="Tl3-6" value="" style="whiteSpace=wrap;html=1;fillColor=#dae8fc;strokeColor=#6c8ebf;fontColor=#333333;ellipse" vertex="1" parent="node_root_Tl3">
          <mxGeometry x="280" y="250" width="160" height="160" as="geometry"/>
        </mxCell>
        <mxCell id="Tl3-7" value="" style="whiteSpace=wrap;html=1;fillColor=#dae8fc;strokeColor=#6c8ebf;fontColor=#333333" vertex="1" parent="node_root_Tl3">
          <mxGeometry x="500" y="250" width="160" height="160" as="geometry"/>
        </mxCell>
        <mxCell id="Tl3-8" value="" style="whiteSpace=wrap;html=1;fillColor=#dae8fc;strokeColor=#6c8ebf;fontColor=#333333;ellipse" vertex="1" parent="node_root_Tl3">
          <mxGeometry x="60" y="470" width="160" height="160" as="geometry"/>
        </mxCell>
      </root>
    </mxGraphModel>
  </diagram>
</mxfile>